<svg xmlns="http://www.w3.org/2000/svg" viewBox="0 0 299.42 261.29"><defs><style>.cls-1{fill:#fff;}</style></defs><g id="Layer_2" data-name="Layer 2"><g id="Layer_1-2" data-name="Layer 1"><path class="cls-1" d="M299.25,73.2c-.08-19.5-17-35.62-36.44-35.63-12.66,0-25.32-.09-38,.06-3.78,0-6.3-.68-7.19-4.94-.74-3.55-2.29-6.93-3.53-10.37C209.05,8.2,197.5,0,182.6,0c-22,0-44-.06-66,0-14.26,0-24.38,6.75-30.17,19.74a95.41,95.41,0,0,0-4.69,13.13c-1.06,3.8-3.24,4.78-6.92,4.73-12.66-.17-25.32-.06-38-.07C16.88,37.57.11,54,.07,73.94q-.15,75.19,0,150.41a36.92,36.92,0,0,0,37.31,36.92q56.22,0,112.44,0,56.46,0,112.93,0c19.52,0,36.37-16.09,36.47-35.66Q299.62,149.4,299.25,73.2ZM258.68,234.08H40.83c-10.31,0-13.35-3.05-13.35-13.39q0-71.46,0-142.9c0-9.82,3-12.9,12.75-12.93,15.66-.06,31.31,0,47,0,10.2,0,15-3.53,18-13.15,2-6.33,4.06-12.62,6.08-18.94,1.2-3.76,3.43-5.59,7.69-5.55q30.72.24,61.46,0c4.52,0,7.07,1.73,8.4,6.07,2.13,7,4.54,13.9,7,20.79,2.76,7.86,6.9,10.73,15.36,10.75,16,0,32,0,48,0,9.86,0,12.84,3,12.84,12.83q0,71.7,0,143.4C271.92,231,268.78,234.08,258.68,234.08Z"/><path class="cls-1" d="M149.55,84.15a64.66,64.66,0,0,0-65.15,65.4c.15,37.06,29.2,64.9,65,65.17a65.1,65.1,0,0,0,65.66-65C215,111.86,185,83.92,149.55,84.15ZM148.85,187c-20.09-.07-36.79-17.2-36.74-37.67A37.91,37.91,0,0,1,150,111.72c20.31,0,37.27,17.25,37.25,37.78C187.27,170.59,170.39,187.05,148.85,187Z"/></g></g></svg>