<svg xmlns="http://www.w3.org/2000/svg" viewBox="0 0 984.14 765.9"><defs><style>.cls-1{fill:#1e2a3f;}</style></defs><g id="Layer_2" data-name="Layer 2"><g id="Layer_1-2" data-name="Layer 1"><path class="cls-1" d="M90.44,233c-20.26-19.29-56.39-18.13-75.54,2.13C3.77,246.9,0,261,0,276.72Q.09,383,.07,489.2a81,81,0,0,0,1,14.45c4.5,25,24.25,41.87,50.24,43.36,24.38,1.41,48.29-14.89,55.19-37.79,1.27-4.21,2-8.59,3.07-13.36L281.9,548.8c-13.65,43.92-10.84,86.47,9.26,127.07,20.26,40.92,53,68.4,96.63,81.94,38.51,12,76.89,10.29,114.19-5.49,49.21-20.81,78.89-58.82,94.32-109.53l223.3,68V55.35l-710.06,215C103.12,246.36,101.81,243.81,90.44,233ZM360.77,570.87l157.09,48c-7.05,29.41-24.92,49.75-52.23,60-32.31,12.18-62,3.86-86.66-19.35C356.42,638.28,349.07,598.85,360.77,570.87Z"/><path class="cls-1" d="M984.1,63.45c0-4.83-.06-9.68-.5-14.48-1.92-21.1-12.39-36.83-32.09-44.37-20.67-7.92-41-6-58.58,9-13.85,11.82-18,27.68-18,45.29q.15,162.23,0,324.43Q875,544,875,704.7c0,3.67.13,7.33.36,11,1.45,22.58,14.93,40.53,35.43,47.23,22.42,7.32,46.79.87,61-16,9.85-11.66,12.27-25.45,12.26-40.12Q984.1,385.14,984.1,63.45Z"/></g></g></svg>