<svg width="270" height="76" viewBox="0 0 270 76" fill="none" xmlns="http://www.w3.org/2000/svg">
<path d="M1 72.6748C45.1667 22.6748 160.5 -46.9252 268.5 74.6748" stroke="#1F2A3F" stroke-width="2" stroke-dasharray="5 6"/>
<circle cx="7" cy="7" r="7" transform="matrix(-1 0 0 1 155 0)" fill="#1F2A3F"/>
<path d="M151.836 37.2837L141.177 33.286C140.264 32.947 139.252 32.9962 138.383 33.4337L135.873 34.686C135.266 34.9923 135.222 35.8399 135.791 36.2063L143.824 41.3743L138.437 44.1251L135.255 42.7087C134.779 42.4954 134.227 42.5063 133.762 42.7415L132.001 43.622C131.492 43.879 131.355 44.5407 131.727 44.9727L135.725 49.6376C136.059 50.0259 136.545 50.2501 137.054 50.2501H144.584C144.858 50.2501 145.126 50.1845 145.366 50.0642L160.291 42.6048C162.834 41.3306 164.802 39.1431 165.803 36.4798C166.323 35.1017 165.3 33.6251 163.823 33.6251H160.684C159.58 33.6251 158.486 33.8876 157.502 34.3907L151.836 37.2837ZM131 57.2501C131 58.2181 131.782 59.0001 132.75 59.0001H164.25C165.218 59.0001 166 58.2181 166 57.2501C166 56.2821 165.218 55.5001 164.25 55.5001H132.75C131.782 55.5001 131 56.2821 131 57.2501Z" fill="#1F2A3F"/>
</svg>
