<svg xmlns="http://www.w3.org/2000/svg" viewBox="0 0 299.15 261.66"><defs><style>.cls-1{fill:#22314e;}</style></defs><g id="Layer_2" data-name="Layer 2"><g id="Layer_1-2" data-name="Layer 1"><path fill="#1F2A3F" class="cls-1" d="M287,113.29Q222.47,85.62,157.92,58C119.48,41.53,81.11,24.87,42.59,8.59,34.71,5.26,27.25.45,18.65,0A17.08,17.08,0,0,0,9.26,2.31C0,8-2.49,17.72,2.82,28.38q23.91,48,48.07,96c2.27,4.47,2.38,7.93.07,12.47-16.27,32-32.28,64.2-48.31,96.35-4.21,8.45-3.35,16.22,2.22,22.28,5.75,6.27,13.72,8,22.38,4.29q49.95-21.23,99.8-42.65,79.83-34.23,159.66-68.52c8.05-3.45,12.5-9.32,12.44-18C299.1,122.21,294.54,116.53,287,113.29ZM39.93,224c-.87-2.46.46-4,1.22-5.49C52.7,195.29,64.38,172.18,75.83,149c1.71-3.47,3.68-4.72,7.61-4.71,44.12.13,88.24,0,132.36,0,1.91,0,3.93-.32,6.3,1.51ZM216.15,117.17c-44,0-87.9,0-131.85.12-4.44,0-6.86-1.34-8.83-5.37-11.25-23-22.79-45.84-34.21-68.75a12.71,12.71,0,0,1-1.54-5.91l183.22,78.61C219.75,117.61,217.9,117.17,216.15,117.17Z"/></g></g></svg>