<svg xmlns="http://www.w3.org/2000/svg" viewBox="0 0 764.62 874.43"><defs><style>.cls-1{fill:#1e2a3f;}</style></defs><g id="Layer_2" data-name="Layer 2"><g id="Layer_1-2" data-name="Layer 1"><path class="cls-1" d="M764.59,826.4a282.89,282.89,0,0,0-3.87-38.18c-9.39-56-37.18-101.23-81-136.87C637.32,616.8,588,601.64,533.94,601.44q-151.73-.57-303.44.08a259.16,259.16,0,0,0-45.68,4.25C123.92,617,75.87,648.83,40.14,699.09,12.36,738.19.22,782.46,0,830.05-.06,843,4.44,855,14.92,863.68c9.69,8.05,21.25,10.7,33.51,10.7q167,.06,333.94,0h236c33.16,0,66.32.09,99.48,0C746.86,874.27,765.48,855.45,764.59,826.4Z"/><path class="cls-1" d="M167.31,300.18q214.21.06,428.44,0a64.19,64.19,0,0,0,12.39-1.05c14.11-2.8,24.86-10.11,30.21-24,5.72-14.84,3.62-28.72-5.85-41.43-6.84-9.17-16.77-12.74-27.56-14.33-3-.44-4.32-1.42-4.54-4.57a144,144,0,0,0-1.91-15.35c-8.78-48.93-30-91.37-66.28-125.79a222.48,222.48,0,0,0-47.33-34.31L438,134.62l-1.2-.29v-5.21c0-28.83.09-57.66,0-86.48C436.63,20.37,424,4.5,402,1.32,390-.44,377.41-.21,365.19.68c-11.32.82-21.58,5.37-28.67,15.13-6,8.25-8.58,17.59-8.62,27.61-.12,28.83,0,57.66,0,86.48v5l-1.1,0c-15.62-31.75-31.25-63.5-47-95.49-.94.45-1.25.58-1.54.75-2.44,1.42-4.91,2.8-7.32,4.27-41.94,25.69-72.62,61-91.1,106.7a229.78,229.78,0,0,0-15.42,62.7c-.39,3.76-1.71,5.17-5.67,5.73-15.2,2.17-26.89,9.59-32.55,24.47-5.89,15.45-3.51,30,7.07,42.51C142,296.87,154.19,300.18,167.31,300.18Z"/><path class="cls-1" d="M382.82,545.84c123.62-.08,203.31-92.94,215.77-190.24H166C178.52,452.83,257.84,545.93,382.82,545.84Z"/></g></g></svg>