<svg xmlns="http://www.w3.org/2000/svg" viewBox="0 0 765.75 874.47"><defs><style>.cls-1{fill:#1F2A3F;}</style></defs><g  id="Layer_2" data-name="Layer 2"><g id="Layer_1-2" data-name="Layer 1"><path  fill="#1F2A3F" class="cls-1" d="M710.57,219H54.8v5.75q0,268.45,0,536.92a113.24,113.24,0,0,0,6,37.78c16.27,46.13,56.8,75,105.93,75q216,.17,431.93,0c16,0,31.64-2.7,46.08-9.57,43.54-20.72,65.59-55.89,65.69-103.75q.54-268,.14-535.92ZM465.36,570.82c18,18,36.27,35.85,54,54.14,10,10.33,15.83,22.67,13.08,37.61-5.46,29.65-39.23,44.84-64.32,26.34a81.21,81.21,0,0,1-9.15-7.7q-36.09-36-72-72.18c-1.28-1.29-2.62-2.52-4.26-4.09-15,15-29.64,29.57-44.25,44.17C327.13,660.42,316.11,672,304.49,683c-12,11.36-25.9,17.36-42.82,12.19a40.84,40.84,0,0,1-22.39-61.71,67.4,67.4,0,0,1,8.51-10.41q36.12-36.33,72.47-72.46a37.94,37.94,0,0,1,4.58-3.35c-2.1-2.2-3.32-3.54-4.6-4.82-24.51-24.51-49.18-48.86-73.42-73.63a57.22,57.22,0,0,1-11.54-17.26c-6.42-15.21-1.22-35.74,10.34-44.72,17.3-13.44,34.71-14.54,51-3A80.25,80.25,0,0,1,307,412.45q35.94,35.81,71.71,71.8c1.28,1.29,2.32,2.82,3.73,4.54,7.5-7.6,14.38-14.62,21.31-21.58,19.06-19.12,38-38.35,57.27-57.26,8.78-8.62,19.21-14.56,32-13.82,16.44.94,28.59,8.73,35.92,23.71,7,14.26,5.07,27.78-3.46,40.63a66.26,66.26,0,0,1-8.32,9.93q-36,36.14-72.1,72.12c-1.28,1.28-2.5,2.62-3.92,4.11Z"/><path class="cls-1" d="M755.47,76.62c-10.92-16.18-27.21-22.21-46.11-22.23-49.17,0-98.34-.44-147.49.31-11.51.18-18.93-2.13-22-13.7-.59-2.2-2.1-4.14-3.11-6.24C525.38,11.21,506.81-.12,480.52,0,415.69.29,350.86.09,286,.11c-3.17,0-6.34,0-9.49.24-15.29,1.23-28.84,6.78-38,19.29C231.8,29,226.73,39.58,221.23,49.81c-1.78,3.31-3.57,4.7-7.55,4.68q-77.74-.26-155.49-.07a99.29,99.29,0,0,0-12.43.83C23.92,58,7.48,72.46,2.05,93.5c-6,23.3,1.45,46.59,19.07,59.58,10.94,8.08,23.37,10.45,36.73,10.44q162.24-.18,324.48-.07h323c2.83,0,5.66,0,8.49-.13,20.71-.9,36.8-10.08,45.7-28.78C768.85,114.93,767.86,95,755.47,76.62Z"/></g></g></svg>